<svg width="800" height="800" viewBox="0 0 800 800" fill="none" xmlns="http://www.w3.org/2000/svg">
<path d="M399.999 66.6667C334.072 66.6667 269.626 86.2163 214.809 122.843C159.993 159.471 117.269 211.53 92.0397 272.439C66.8104 333.348 60.2093 400.37 73.0711 465.03C85.9328 529.69 117.68 589.085 164.297 635.702C210.915 682.32 270.309 714.067 334.969 726.928C399.63 739.79 466.652 733.189 527.561 707.96C588.469 682.731 640.529 640.006 677.156 585.19C713.783 530.374 733.333 465.927 733.333 400C733.333 356.226 724.711 312.881 707.959 272.439C691.208 231.997 666.655 195.251 635.702 164.298C604.749 133.345 568.003 108.792 527.561 92.0402C487.119 75.2886 443.773 66.6667 399.999 66.6667ZM523.666 476.333C526.79 479.432 529.27 483.119 530.963 487.181C532.655 491.243 533.526 495.6 533.526 500C533.526 504.4 532.655 508.757 530.963 512.819C529.27 516.881 526.79 520.568 523.666 523.667C520.567 526.791 516.881 529.271 512.819 530.963C508.757 532.655 504.4 533.527 499.999 533.527C495.599 533.527 491.242 532.655 487.18 530.963C483.118 529.271 479.432 526.791 476.333 523.667L399.999 447.333L323.666 523.667C320.567 526.791 316.881 529.271 312.819 530.963C308.757 532.655 304.4 533.527 299.999 533.527C295.599 533.527 291.242 532.655 287.18 530.963C283.118 529.271 279.432 526.791 276.333 523.667C273.209 520.568 270.729 516.881 269.036 512.819C267.344 508.757 266.473 504.4 266.473 500C266.473 495.6 267.344 491.243 269.036 487.181C270.729 483.119 273.209 479.432 276.333 476.333L352.666 400L276.333 323.667C270.056 317.39 266.53 308.877 266.53 300C266.53 291.123 270.056 282.61 276.333 276.333C282.61 270.057 291.123 266.53 299.999 266.53C308.876 266.53 317.389 270.057 323.666 276.333L399.999 352.667L476.333 276.333C482.61 270.057 491.123 266.53 499.999 266.53C508.876 266.53 517.389 270.057 523.666 276.333C529.943 282.61 533.469 291.123 533.469 300C533.469 308.877 529.943 317.39 523.666 323.667L447.333 400L523.666 476.333Z" fill="#505A5F"/>
</svg>
