<svg width="800" height="800" viewBox="0 0 800 800" fill="none" xmlns="http://www.w3.org/2000/svg">
<path d="M399.999 66.6667C334.072 66.6667 269.626 86.2163 214.809 122.843C159.993 159.471 117.269 211.53 92.0397 272.439C66.8104 333.348 60.2093 400.37 73.0711 465.03C85.9328 529.69 117.68 589.085 164.297 635.702C210.915 682.32 270.309 714.067 334.969 726.928C399.63 739.79 466.652 733.189 527.561 707.96C588.469 682.731 640.529 640.006 677.156 585.19C713.783 530.374 733.333 465.927 733.333 400C733.333 356.226 724.711 312.881 707.959 272.439C691.208 231.997 666.655 195.251 635.702 164.298C604.749 133.345 568.003 108.792 527.561 92.0402C487.119 75.2886 443.773 66.6667 399.999 66.6667ZM589.2 341.233L389.199 524.567C382.867 530.373 374.538 533.51 365.949 533.324C357.359 533.137 349.174 529.642 343.1 523.567L243.099 423.567C239.916 420.492 237.376 416.814 235.629 412.747C233.882 408.68 232.963 404.306 232.924 399.88C232.886 395.454 233.729 391.065 235.405 386.968C237.081 382.872 239.557 379.15 242.686 376.02C245.816 372.89 249.538 370.415 253.634 368.739C257.731 367.063 262.12 366.22 266.546 366.258C270.972 366.297 275.346 367.216 279.413 368.963C283.48 370.71 287.158 373.25 290.233 376.433L367.666 453.867L544.133 292.1C550.648 286.124 559.271 282.981 568.104 283.362C576.937 283.743 585.257 287.618 591.233 294.133C597.209 300.649 600.352 309.271 599.971 318.104C599.59 326.937 595.715 335.257 589.2 341.233Z" fill="#00703C"/>
</svg>
